<svg width="24" height="25" viewBox="0 0 24 25" fill="none" xmlns="http://www.w3.org/2000/svg">
<g id="logos:google-play-icon" clip-path="url(#clip0_0_124)">
<path id="Vector" d="M17.2275 16.3207C20.1891 14.6946 22.4343 13.4554 22.6278 13.3591C23.2469 13.0299 23.8862 12.1585 22.6278 11.4817C22.2215 11.2688 20.034 10.0683 17.2275 8.52002L13.3368 12.4493L17.2275 16.3207V16.3207Z" fill="#FFD900"/>
<path id="Vector_2" d="M13.3368 12.4492L0.948364 24.9349C1.23915 24.9734 1.56743 24.8963 1.95448 24.6835C2.76707 24.2387 11.3813 19.5344 17.2275 16.3216L13.3368 12.4492Z" fill="#F43249"/>
<path id="Vector_3" d="M13.3368 12.4493L17.2275 8.53931C17.2275 8.53931 2.82582 0.679733 1.95447 0.215773C1.62619 0.0213384 1.2583 -0.036417 0.929108 0.0213384L13.3368 12.4493Z" fill="#00EE76"/>
<path id="Vector_4" d="M13.3368 12.4492L0.929106 0.0212402C0.425547 0.137664 0 0.582554 0 1.49241V23.4637C0 24.2964 0.329288 24.8962 0.948358 24.9541L13.3368 12.4492Z" fill="#00D3FF"/>
</g>
<defs>
<clipPath id="clip0_0_124">
<rect width="23.3577" height="25" fill="white"/>
</clipPath>
</defs>
</svg>
